<svg width="36" height="36" viewBox="0 0 36 36" fill="none" xmlns="http://www.w3.org/2000/svg">
<path d="M15.5 1.44338C17.047 0.550211 18.953 0.550212 20.5 1.44338L31.0885 7.55662C32.6355 8.44979 33.5885 10.1004 33.5885 11.8868V24.1132C33.5885 25.8996 32.6355 27.5502 31.0885 28.4434L20.5 34.5566C18.953 35.4498 17.047 35.4498 15.5 34.5566L4.91154 28.4434C3.36454 27.5502 2.41154 25.8996 2.41154 24.1132V11.8868C2.41154 10.1004 3.36454 8.44979 4.91154 7.55662L15.5 1.44338Z" fill="#156963"/>
<path d="M14.5878 22.108C14.3398 22.108 14.1318 22.052 13.9638 21.94C13.7958 21.82 13.6918 21.66 13.6518 21.46C13.6118 21.252 13.6478 21.02 13.7598 20.764L16.7478 14.332C16.8918 14.02 17.0678 13.792 17.2758 13.648C17.4918 13.504 17.7358 13.432 18.0078 13.432C18.2798 13.432 18.5158 13.504 18.7158 13.648C18.9238 13.792 19.1038 14.02 19.2558 14.332L22.2438 20.764C22.3718 21.02 22.4158 21.252 22.3758 21.46C22.3438 21.668 22.2438 21.828 22.0758 21.94C21.9158 22.052 21.7158 22.108 21.4758 22.108C21.1558 22.108 20.9078 22.036 20.7318 21.892C20.5638 21.748 20.4118 21.516 20.2758 21.196L19.6278 19.672L20.4678 20.284H15.5238L16.3758 19.672L15.7278 21.196C15.5838 21.516 15.4358 21.748 15.2838 21.892C15.1318 22.036 14.8998 22.108 14.5878 22.108ZM17.9838 15.844L16.5918 19.168L16.2558 18.592H19.7478L19.4118 19.168L18.0078 15.844H17.9838Z" fill="white"/>
</svg>
