<svg width="48" height="44" viewBox="0 0 48 44" fill="none" xmlns="http://www.w3.org/2000/svg">
<path d="M19.2976 4.88185C15.1042 0.690593 6.89824 0.20459 1.0898 0.20459C0.488251 0.20459 0 0.692738 0 1.29429C0 7.10273 0.483858 15.3087 4.67726 19.5022C6.44708 21.272 9.16061 22.0632 11.8501 22.0632C14.7729 22.0632 17.6695 21.1282 19.2976 19.5001C22.4209 16.3767 22.9942 8.57617 19.2976 4.88185ZM17.7567 17.9612C15.4246 20.2911 8.94922 20.69 6.22047 17.9612C2.83562 14.5765 2.24928 7.69999 2.18604 2.39063C7.4954 2.45387 14.3719 3.0401 17.7566 6.42496C20.4855 9.15371 20.0866 15.6313 17.7567 17.9612Z" fill="#156963"/>
<path d="M46.9105 4.51562C41.102 4.51562 32.896 4.99948 28.7025 9.19288C25.0061 12.8872 25.5792 20.6878 28.7025 23.8111C30.3307 25.4371 33.2251 26.3721 36.1479 26.3721C38.8374 26.3721 41.5488 25.5831 43.3229 23.8133C47.5141 19.6199 48.0002 11.414 48.0002 5.60543C48.0003 5.00388 47.512 4.51562 46.9105 4.51562ZM41.7776 22.2701C39.0489 24.9989 32.5713 24.6 30.2414 22.2701C27.9115 19.9402 27.5126 13.4626 30.2414 10.7339C33.6262 7.34899 40.5026 6.76276 45.812 6.69952C45.7488 12.011 45.1625 18.8875 41.7776 22.2701Z" fill="#156963"/>
<path d="M39.0401 13.9487C38.7829 13.4016 38.0462 13.2143 37.5035 13.467C29.145 17.3967 25.0388 24.2492 23.173 31.2934C20.8649 16.3156 14.189 11.7495 11.3577 9.81193C11.0047 9.57001 10.73 9.39346 10.5775 9.24307C10.1525 8.81806 9.46154 8.81806 9.03653 9.24307C8.61152 9.66808 8.61152 10.359 9.03653 10.784C9.25231 10.9977 9.62501 11.2658 10.1285 11.6101C13.3193 13.7918 21.7955 19.5916 21.7955 42.7056C21.7955 43.3071 22.2838 43.7954 22.8853 43.7954C23.4869 43.7954 23.9751 43.3071 23.9751 42.7078C23.9751 33.3685 26.4838 21.0563 38.432 15.4418C38.432 15.4396 38.6086 15.3568 38.6086 15.3568C39.1513 15.0995 39.2973 14.4936 39.0401 13.9487Z" fill="#156963"/>
</svg>
