<svg width="48" height="48" viewBox="0 0 48 48" fill="none" xmlns="http://www.w3.org/2000/svg">
<path d="M24 47.9998C37.2341 47.9998 48 37.2339 48 23.9998C48.0058 20.8255 47.3782 17.682 46.1531 14.7535C46.0244 14.4378 45.7357 14.2148 45.3978 14.1709C45.0593 14.1264 44.723 14.2667 44.5169 14.5384C44.3114 14.8107 44.2669 15.1724 44.4015 15.486C45.5297 18.1825 46.1075 21.0771 46.1017 23.9998C46.1017 36.1867 36.187 46.1015 24 46.1015C11.813 46.1015 1.8983 36.1867 1.8983 23.9998C1.8983 11.8128 11.813 1.89808 24 1.89808C26.4767 1.8949 28.9364 2.30909 31.2754 3.12371C31.5959 3.23759 31.9534 3.17085 32.2113 2.94893C32.4693 2.72753 32.589 2.38431 32.5249 2.05009C32.4608 1.71587 32.2225 1.44151 31.9004 1.33134C29.3602 0.446806 26.6896 -0.0034054 24 -0.000227433C10.7659 -0.000227433 0 10.7657 0 23.9998C0 37.2339 10.7659 47.9998 24 47.9998Z" fill="#156963"/>
<path d="M33.4094 6.17275C33.0387 5.80199 32.4375 5.80199 32.0667 6.17275C31.6965 6.54351 31.6965 7.14468 32.0667 7.51544L36.4836 11.9323C36.8485 12.2972 37.4375 12.3036 37.8104 11.9471L45.5969 4.51015C45.8459 4.27657 45.9502 3.92752 45.8708 3.59595C45.7908 3.26438 45.5392 3.00061 45.2113 2.9058C44.884 2.81099 44.5307 2.89945 44.286 3.13727L37.17 9.93388L33.4094 6.17275Z" fill="#156963"/>
<path d="M24.0001 14.8193C26.2405 14.822 28.0562 16.6377 28.0589 18.8781C28.0589 19.4025 28.4837 19.8273 29.008 19.8273C29.5324 19.8273 29.9572 19.4025 29.9572 18.8781C29.9535 15.956 27.8332 13.4666 24.9492 12.9973V11.1186C24.9492 10.5942 24.5244 10.1694 24.0001 10.1694C23.4757 10.1694 23.0509 10.5942 23.0509 11.1186V12.9973C19.9863 13.4936 17.8163 16.2595 18.0647 19.3543C18.3126 22.4486 20.8957 24.8336 24.0001 24.8347C26.2321 24.8347 28.0456 26.6371 28.0583 28.8696C28.0716 31.1016 26.2792 32.9253 24.0472 32.9512C24.0313 32.9502 24.016 32.9486 24.0001 32.9486C23.9842 32.9486 23.9688 32.9502 23.9529 32.9512C21.731 32.9231 19.9439 31.1154 19.9413 28.8935C19.9413 28.3691 19.5165 27.9443 18.9921 27.9443C18.4678 27.9443 18.043 28.3691 18.043 28.8935C18.0467 31.8156 20.1664 34.305 23.0509 34.7743V36.8813C23.0509 37.4057 23.4757 37.8305 24.0001 37.8305C24.5244 37.8305 24.9492 37.4057 24.9492 36.8813V34.7743C28.0144 34.2796 30.1855 31.5127 29.9371 28.4178C29.6892 25.323 27.1049 22.9374 24.0001 22.9374C22.5446 22.9454 21.1955 22.1737 20.4656 20.9147C19.7352 19.6551 19.7352 18.1016 20.4656 16.8421C21.1955 15.5831 22.5446 14.8114 24.0001 14.8199V14.8193Z" fill="#156963"/>
</svg>
